<?xml version="1.0" encoding="UTF-8"?> <svg xmlns="http://www.w3.org/2000/svg" id="Layer_1" viewBox="0 0 83.58 84"><defs><style>.cls-1{fill:#fff;}</style></defs><g><path class="cls-1" d="M14.02,14.23H.42V.62H14.02V14.23ZM1.92,12.73H12.52V2.12H1.92V12.73Z"></path><path class="cls-1" d="M83.17,14.23h-13.6V.62h13.6V14.23Zm-12.1-1.5h10.6V2.12h-10.6V12.73Z"></path><path class="cls-1" d="M48.59,14.23h-13.6V.62h13.6V14.23Zm-12.1-1.5h10.6V2.12h-10.6V12.73Z"></path></g><g><path class="cls-1" d="M14.02,83.38H.42v-13.6H14.02v13.6Zm-12.1-1.5H12.52v-10.6H1.92v10.6Z"></path><path class="cls-1" d="M83.17,83.38h-13.6v-13.6h13.6v13.6Zm-12.1-1.5h10.6v-10.6h-10.6v10.6Z"></path><path class="cls-1" d="M48.59,83.38h-13.6v-13.6h13.6v13.6Zm-12.1-1.5h10.6v-10.6h-10.6v10.6Z"></path></g><g><path class="cls-1" d="M14.02,48.8H.42v-13.6H14.02v13.6Zm-12.1-1.5H12.52v-10.6H1.92v10.6Z"></path><path class="cls-1" d="M83.17,48.8h-13.6v-13.6h13.6v13.6Zm-12.1-1.5h10.6v-10.6h-10.6v10.6Z"></path><path class="cls-1" d="M48.59,48.8h-13.6v-13.6h13.6v13.6Zm-12.1-1.5h10.6v-10.6h-10.6v10.6Z"></path></g><g><path class="cls-1" d="M17.59,8.43c-.26,0-.52-.11-.71-.29-.19-.19-.29-.44-.29-.71s.11-.52,.29-.71c.37-.37,1.04-.37,1.41,0,.19,.19,.29,.44,.29,.71s-.11,.52-.29,.71c-.19,.19-.44,.29-.71,.29Z"></path><path class="cls-1" d="M25.81,7.43c0-.55,.45-1,1-1h0c.55,0,1,.45,1,1h0c0,.55-.45,1-1,1h0c-.55,0-1-.45-1-1Zm-4.61,0c0-.55,.45-1,1-1h0c.55,0,1,.45,1,1h0c0,.55-.45,1-1,1h0c-.55,0-1-.45-1-1Z"></path><path class="cls-1" d="M31.42,8.43c-.26,0-.52-.11-.71-.29-.19-.19-.29-.44-.29-.71s.11-.52,.29-.71c.37-.37,1.04-.37,1.42,0,.19,.19,.29,.44,.29,.71s-.11,.52-.29,.71c-.19,.19-.45,.29-.71,.29Z"></path></g><g><path class="cls-1" d="M17.59,43c-.26,0-.52-.11-.71-.29-.19-.19-.29-.44-.29-.71s.11-.52,.29-.71c.37-.37,1.04-.37,1.41,0,.19,.19,.29,.45,.29,.71s-.11,.52-.29,.71c-.18,.19-.44,.29-.71,.29Z"></path><path class="cls-1" d="M25.81,42c0-.55,.45-1,1-1h0c.55,0,1,.45,1,1h0c0,.55-.45,1-1,1h0c-.55,0-1-.45-1-1Zm-4.61,0c0-.55,.45-1,1-1h0c.55,0,1,.45,1,1h0c0,.55-.45,1-1,1h0c-.55,0-1-.45-1-1Z"></path><path class="cls-1" d="M31.42,43c-.26,0-.52-.11-.71-.29-.19-.19-.29-.44-.29-.71s.11-.52,.29-.71c.37-.37,1.04-.37,1.42,0,.19,.19,.29,.44,.29,.71s-.11,.52-.29,.71c-.19,.19-.44,.29-.71,.29Z"></path></g><g><path class="cls-1" d="M17.59,77.58c-.26,0-.52-.11-.71-.29-.19-.19-.29-.44-.29-.71s.11-.52,.29-.71c.37-.37,1.04-.37,1.41,0,.19,.19,.29,.44,.29,.71s-.11,.52-.29,.71c-.18,.19-.44,.29-.71,.29Z"></path><path class="cls-1" d="M25.81,76.58c0-.55,.45-1,1-1h0c.55,0,1,.45,1,1h0c0,.55-.45,1-1,1h0c-.55,0-1-.45-1-1Zm-4.61,0c0-.55,.45-1,1-1h0c.55,0,1,.45,1,1h0c0,.55-.45,1-1,1h0c-.55,0-1-.45-1-1Z"></path><path class="cls-1" d="M31.42,77.58c-.26,0-.52-.11-.71-.29-.19-.19-.29-.44-.29-.71s.11-.52,.29-.71c.37-.37,1.04-.37,1.42,0,.19,.19,.29,.44,.29,.71s-.11,.52-.29,.71-.44,.29-.71,.29Z"></path></g><g><path class="cls-1" d="M52.16,8.43c-.26,0-.52-.11-.71-.29-.19-.19-.29-.44-.29-.71s.11-.52,.29-.71c.37-.37,1.04-.37,1.42,0,.19,.19,.29,.44,.29,.71s-.11,.52-.29,.71c-.19,.19-.45,.29-.71,.29Z"></path><path class="cls-1" d="M60.38,7.43c0-.55,.45-1,1-1h0c.55,0,1,.45,1,1h0c0,.55-.45,1-1,1h0c-.55,0-1-.45-1-1Zm-4.61,0c0-.55,.45-1,1-1h0c.55,0,1,.45,1,1h0c0,.55-.45,1-1,1h0c-.55,0-1-.45-1-1Z"></path><path class="cls-1" d="M65.99,8.43c-.26,0-.52-.11-.71-.29-.19-.19-.29-.44-.29-.71s.11-.52,.29-.71c.37-.37,1.04-.37,1.42,0,.19,.19,.29,.44,.29,.71s-.11,.52-.29,.71c-.19,.19-.44,.29-.71,.29Z"></path></g><g><path class="cls-1" d="M52.16,43c-.26,0-.52-.11-.71-.29s-.29-.44-.29-.71,.11-.52,.29-.71c.37-.37,1.04-.37,1.42,0,.19,.19,.29,.44,.29,.71s-.11,.52-.29,.71c-.19,.19-.44,.29-.71,.29Z"></path><path class="cls-1" d="M60.38,42c0-.55,.45-1,1-1h0c.55,0,1,.45,1,1h0c0,.55-.45,1-1,1h0c-.55,0-1-.45-1-1Zm-4.61,0c0-.55,.45-1,1-1h0c.55,0,1,.45,1,1h0c0,.55-.45,1-1,1h0c-.55,0-1-.45-1-1Z"></path><path class="cls-1" d="M65.99,43c-.26,0-.52-.11-.71-.29-.19-.19-.29-.44-.29-.71s.11-.52,.29-.71c.37-.37,1.04-.37,1.42,0,.19,.19,.29,.44,.29,.71s-.11,.52-.29,.71c-.19,.19-.44,.29-.71,.29Z"></path></g><g><path class="cls-1" d="M52.16,77.58c-.26,0-.52-.11-.71-.29-.19-.19-.29-.44-.29-.71s.11-.52,.29-.71c.37-.37,1.04-.37,1.42,0,.19,.19,.29,.44,.29,.71s-.11,.52-.29,.71-.44,.29-.71,.29Z"></path><path class="cls-1" d="M60.38,76.58c0-.55,.45-1,1-1h0c.55,0,1,.45,1,1h0c0,.55-.45,1-1,1h0c-.55,0-1-.45-1-1Zm-4.61,0c0-.55,.45-1,1-1h0c.55,0,1,.45,1,1h0c0,.55-.45,1-1,1h0c-.55,0-1-.45-1-1Z"></path><path class="cls-1" d="M65.99,77.58c-.26,0-.52-.11-.71-.29s-.29-.44-.29-.71,.11-.52,.29-.71c.37-.37,1.04-.37,1.42,0,.19,.19,.29,.44,.29,.71s-.11,.52-.29,.71c-.19,.19-.44,.29-.71,.29Z"></path></g><g><g><path class="cls-1" d="M76.37,18.8c-.26,0-.52-.11-.71-.29-.19-.19-.29-.44-.29-.71s.11-.52,.29-.71c.37-.37,1.04-.37,1.41,0,.19,.19,.29,.44,.29,.71s-.11,.52-.29,.71c-.19,.19-.44,.29-.71,.29Z"></path><path class="cls-1" d="M75.37,27.02c0-.55,.45-1,1-1h0c.55,0,1,.45,1,1h0c0,.55-.45,1-1,1h0c-.55,0-1-.45-1-1Zm0-4.61c0-.55,.45-1,1-1h0c.55,0,1,.45,1,1h0c0,.55-.45,1-1,1h0c-.55,0-1-.45-1-1Z"></path><path class="cls-1" d="M76.37,32.63c-.26,0-.52-.11-.71-.29-.19-.19-.29-.44-.29-.71s.11-.52,.29-.71c.37-.37,1.04-.37,1.41,0,.19,.19,.29,.44,.29,.71s-.11,.52-.29,.71c-.19,.19-.44,.29-.71,.29Z"></path></g><g><path class="cls-1" d="M41.79,18.8c-.26,0-.52-.11-.71-.29-.19-.19-.29-.45-.29-.71s.11-.52,.29-.71c.37-.37,1.04-.37,1.41,0,.19,.19,.29,.44,.29,.71s-.11,.52-.29,.71c-.19,.19-.44,.29-.71,.29Z"></path><path class="cls-1" d="M40.79,27.02c0-.55,.45-1,1-1h0c.55,0,1,.45,1,1h0c0,.55-.45,1-1,1h0c-.55,0-1-.45-1-1Zm0-4.61c0-.55,.45-1,1-1h0c.55,0,1,.45,1,1h0c0,.55-.45,1-1,1h0c-.55,0-1-.45-1-1Z"></path><path class="cls-1" d="M41.79,32.63c-.26,0-.52-.11-.71-.29-.19-.19-.29-.44-.29-.71s.11-.52,.29-.71c.37-.37,1.04-.37,1.41,0,.19,.19,.29,.44,.29,.71s-.11,.52-.29,.71c-.19,.19-.44,.29-.71,.29Z"></path></g><g><path class="cls-1" d="M7.22,18.8c-.26,0-.52-.11-.71-.29-.19-.19-.29-.44-.29-.71s.11-.52,.29-.71c.37-.37,1.04-.37,1.41,0,.19,.19,.29,.44,.29,.71s-.11,.52-.29,.71c-.19,.19-.44,.29-.71,.29Z"></path><path class="cls-1" d="M6.22,27.02c0-.55,.45-1,1-1h0c.55,0,1,.45,1,1h0c0,.55-.45,1-1,1h0c-.55,0-1-.45-1-1Zm0-4.61c0-.55,.45-1,1-1h0c.55,0,1,.45,1,1h0c0,.55-.45,1-1,1h0c-.55,0-1-.45-1-1Z"></path><path class="cls-1" d="M7.22,32.63c-.26,0-.52-.11-.71-.29-.19-.19-.29-.44-.29-.71s.11-.52,.29-.71c.37-.37,1.04-.37,1.41,0,.19,.19,.29,.44,.29,.71s-.11,.52-.29,.71c-.19,.19-.44,.29-.71,.29Z"></path></g><g><path class="cls-1" d="M76.37,53.37c-.26,0-.52-.11-.71-.29-.19-.19-.29-.44-.29-.71s.11-.52,.29-.71c.37-.37,1.04-.37,1.41,0,.19,.18,.29,.44,.29,.71s-.11,.52-.29,.71c-.19,.19-.44,.29-.71,.29Z"></path><path class="cls-1" d="M75.37,61.59c0-.55,.45-1,1-1h0c.55,0,1,.45,1,1h0c0,.55-.45,1-1,1h0c-.55,0-1-.45-1-1Zm0-4.61c0-.55,.45-1,1-1h0c.55,0,1,.45,1,1h0c0,.55-.45,1-1,1h0c-.55,0-1-.45-1-1Z"></path><path class="cls-1" d="M76.37,67.2c-.26,0-.52-.11-.71-.29-.19-.19-.29-.44-.29-.71s.11-.52,.29-.71c.37-.37,1.04-.37,1.41,0,.19,.19,.29,.44,.29,.71s-.11,.52-.29,.71-.44,.29-.71,.29Z"></path></g><g><path class="cls-1" d="M41.79,53.37c-.26,0-.52-.11-.71-.29-.19-.19-.29-.44-.29-.71s.11-.52,.29-.71c.37-.37,1.04-.37,1.41,0,.19,.18,.29,.44,.29,.71s-.11,.52-.29,.71c-.19,.19-.44,.29-.71,.29Z"></path><path class="cls-1" d="M40.79,61.59c0-.55,.45-1,1-1h0c.55,0,1,.45,1,1h0c0,.55-.45,1-1,1h0c-.55,0-1-.45-1-1Zm0-4.61c0-.55,.45-1,1-1h0c.55,0,1,.45,1,1h0c0,.55-.45,1-1,1h0c-.55,0-1-.45-1-1Z"></path><path class="cls-1" d="M41.79,67.2c-.26,0-.52-.11-.71-.29-.19-.19-.29-.44-.29-.71s.11-.52,.29-.71c.37-.37,1.04-.37,1.41,0,.19,.19,.29,.44,.29,.71s-.11,.52-.29,.71c-.19,.19-.44,.29-.71,.29Z"></path></g><g><path class="cls-1" d="M7.22,53.37c-.26,0-.52-.11-.71-.29-.19-.19-.29-.44-.29-.71s.11-.52,.29-.71c.37-.37,1.04-.37,1.41,0,.19,.19,.29,.44,.29,.71s-.11,.52-.29,.71c-.18,.19-.44,.29-.71,.29Z"></path><path class="cls-1" d="M6.22,61.59c0-.55,.45-1,1-1h0c.55,0,1,.45,1,1h0c0,.55-.45,1-1,1h0c-.55,0-1-.45-1-1Zm0-4.61c0-.55,.45-1,1-1h0c.55,0,1,.45,1,1h0c0,.55-.45,1-1,1h0c-.55,0-1-.45-1-1Z"></path><path class="cls-1" d="M7.22,67.2c-.26,0-.52-.11-.71-.29-.19-.19-.29-.44-.29-.71s.11-.52,.29-.71c.37-.37,1.04-.37,1.41,0,.19,.19,.29,.44,.29,.71s-.11,.52-.29,.71c-.18,.19-.44,.29-.71,.29Z"></path></g></g></svg> 