<?xml version="1.0" encoding="UTF-8"?> <svg xmlns="http://www.w3.org/2000/svg" id="Layer_1" viewBox="0 0 84 84"><defs><style>.cls-1{fill:#fff;}</style></defs><path class="cls-1" d="M60.01,78.08c-.19,.19-.29,.44-.29,.71s.11,.52,.29,.71c.19,.19,.44,.29,.71,.29s.52-.11,.71-.29c.19-.19,.29-.44,.29-.71s-.11-.52-.29-.71c-.37-.37-1.04-.37-1.41,0Z"></path><path class="cls-1" d="M60.64,71.56c-.55,.06-.95,.55-.89,1.1,.06,.51,.49,.9,.99,.9,.04,0,.07,0,.11,0,.55-.06,.95-.55,.89-1.1-.06-.55-.55-.95-1.1-.89Z"></path><path class="cls-1" d="M60.45,66.16c-.16-.53-.72-.83-1.25-.67-.53,.16-.83,.72-.67,1.25,.13,.43,.53,.71,.96,.71,.1,0,.19-.01,.29-.04,.53-.16,.83-.72,.67-1.25Z"></path><path class="cls-1" d="M56.77,59.75c-.5,.24-.7,.84-.46,1.34h0c.17,.36,.53,.56,.9,.56,.15,0,.3-.03,.44-.1,.5-.24,.7-.84,.46-1.34-.24-.5-.84-.7-1.34-.46Z"></path><path class="cls-1" d="M49.55,49.62c-.41,.37-.44,1-.07,1.41,.2,.22,.47,.33,.74,.33,.24,0,.48-.08,.67-.26,.41-.37,.44-1,.07-1.41-.37-.41-1-.44-1.41-.07Z"></path><path class="cls-1" d="M45.14,45.2c-.39,.39-.39,1.02,0,1.41,.2,.2,.45,.29,.71,.29s.51-.1,.71-.29c.39-.39,.39-1.02,0-1.41-.39-.39-1.02-.39-1.41,0Z"></path><path class="cls-1" d="M40.73,40.78c-.39,.39-.39,1.02,0,1.42,.19,.19,.45,.29,.71,.29s.51-.1,.71-.29c.39-.39,.39-1.02,0-1.42-.39-.39-1.02-.39-1.42,0Z"></path><path class="cls-1" d="M36.31,36.37c-.19,.19-.29,.44-.29,.71s.11,.52,.29,.71c.19,.19,.44,.29,.71,.29s.52-.11,.71-.29,.29-.44,.29-.71-.11-.52-.29-.71c-.38-.37-1.04-.37-1.41,0Z"></path><path class="cls-1" d="M58.5,22.19l-2.53,.26c0,3.93,2.98,5.97,6.6,6.28v1.53h1.98v-1.5c3.27-.21,6.49-1.58,6.49-5.67,0-3.83-2.96-4.54-6.49-5.12v-6.15c2.09,.48,3.3,1.95,3.35,4.2l2.48-.45c-.34-3.78-2.72-5.41-5.83-5.81v-1.56h-1.98v1.48c-2.9,.16-6.1,1.61-6.1,5.2s3.17,4.54,6.04,5.23h.05v6.63c-2.38-.34-4.07-1.93-4.07-4.54Zm6.04-1.69c2.11,.4,4.01,.82,4.01,2.77,0,2.35-1.77,3.27-4.01,3.46v-6.23Zm-5.62-5.73c0-2.01,1.93-2.98,3.64-3.09v5.91c-1.93-.45-3.64-1.19-3.64-2.82Z"></path><path class="cls-1" d="M82.91,55.16c-1.48-6.74-4.98-13.15-9.71-18.53,5.88-3.29,9.87-9.57,9.87-16.78,0-10.6-8.62-19.22-19.22-19.22s-19.22,8.62-19.22,19.22c0,.42,.04,.82,.06,1.23-.41-.52-.83-1.02-1.3-1.49-3.83-3.83-9.06-5.43-14.06-4.83V.12h-1.5V15.01c-3.1,.66-6.06,2.18-8.47,4.59-2.3,2.3-3.78,5.09-4.48,8.04H.32v1.5H14.61c-.75,5.13,.83,10.55,4.77,14.49,.68,.68,1.43,1.29,2.21,1.84,.1,1.63,.33,3.3,.7,5.01,3.71,16.96,20.25,31.89,36.87,33.3,.85,.07,1.7,.11,2.52,.11,6.84,0,12.72-2.45,16.74-7.04,4.77-5.44,6.36-13.14,4.49-21.68ZM63.86,2.14c9.77,0,17.72,7.95,17.72,17.72s-7.95,17.72-17.72,17.72-17.72-7.95-17.72-17.72S54.09,2.14,63.86,2.14ZM21.53,43.55c-.38-.31-.75-.64-1.09-.99-6.04-6.04-6.04-15.87,0-21.91,3.02-3.02,6.99-4.53,10.95-4.53s7.93,1.51,10.96,4.53c.35,.35,.68,.72,.99,1.1l.6,.66-21.59,21.8-.81-.67Zm55.76,32.3c-4.18,4.77-10.58,7.06-18.01,6.43-16.01-1.36-31.95-15.77-35.53-32.13-.34-1.55-.56-3.07-.66-4.55l21.9-22.13c1.7,8.87,9.5,15.6,18.86,15.6,2.85,0,5.54-.64,7.98-1.76,4.68,5.25,8.16,11.55,9.61,18.17,1.77,8.06,.29,15.3-4.15,20.37Z"></path><path class="cls-1" d="M78,60.16s-.09,.1-.12,.15c-.04,.05-.07,.11-.09,.17-.02,.06-.04,.12-.06,.19-.01,.06-.02,.13-.02,.2,0,.26,.11,.52,.29,.71,.19,.19,.44,.29,.71,.29s.52-.11,.71-.29c.19-.19,.29-.44,.29-.71s-.11-.52-.29-.71c-.37-.37-1.04-.37-1.41,0Z"></path><path class="cls-1" d="M72.61,59.68c-.55-.06-1.04,.33-1.11,.88-.06,.55,.33,1.04,.88,1.11h0s.08,0,.12,0c.5,0,.93-.38,.99-.89,.06-.55-.33-1.04-.88-1.11Z"></path><path class="cls-1" d="M66.69,58.46c-.53-.16-1.09,.14-1.25,.67-.16,.53,.14,1.09,.67,1.25,.1,.03,.19,.04,.29,.04,.43,0,.83-.28,.96-.71,.16-.53-.14-1.09-.67-1.25Z"></path><path class="cls-1" d="M60.18,58.03c.14,.07,.29,.1,.44,.1,.37,0,.73-.21,.9-.56,.24-.5,.04-1.1-.46-1.34-.5-.24-1.1-.04-1.34,.46-.24,.5-.04,1.09,.46,1.34Z"></path><path class="cls-1" d="M53.78,54.05c-.31,.46-.2,1.08,.26,1.39,.17,.12,.37,.18,.56,.18,.32,0,.63-.15,.83-.44,.31-.46,.2-1.08-.26-1.39-.46-.31-1.08-.19-1.39,.26Z"></path></svg> 