<?xml version="1.0" encoding="UTF-8"?> <svg xmlns="http://www.w3.org/2000/svg" xmlns:xlink="http://www.w3.org/1999/xlink" version="1.1" id="Layer_1" x="0px" y="0px" viewBox="0 0 84 84" style="enable-background:new 0 0 84 84;" xml:space="preserve"> <style type="text/css"> .st0{fill:#FFFFFF;} </style> <path class="st0" d="M28.3,64.1c-3.2,0.1-5.8-2.5-5.9-5.7s2.5-5.8,5.7-5.9s5.8,2.5,5.9,5.7S31.5,64,28.3,64.1z M28.1,54 c-2.4,0-4.2,2-4.2,4.4s2,4.2,4.4,4.2s4.2-2,4.2-4.4S30.5,54,28.1,54z"></path> <path class="st0" d="M40.3,83.5c-0.5,0-1-0.5-1-1l0,0c0-0.6,0.5-1,1-1l0,0c0.5,0,1,0.5,1,1l0,0C41.3,83.1,40.9,83.5,40.3,83.5 L40.3,83.5C40.3,83.5,40.3,83.5,40.3,83.5z"></path> <path class="st0" d="M44.4,82.5c0-0.6,0.4-1,0.9-1.1l0,0c0.5-0.1,1,0.4,1.1,0.9l0,0c0,0.6-0.4,1-0.9,1.1l0,0c0,0,0,0-0.1,0l0,0 C44.9,83.4,44.5,83,44.4,82.5L44.4,82.5z"></path> <path class="st0" d="M35.1,83c-0.5-0.1-0.9-0.6-0.8-1.2l0,0c0.1-0.5,0.6-0.9,1.2-0.8l0,0c0.5,0.1,0.9,0.6,0.8,1.2l0,0 c-0.1,0.5-0.5,0.8-1,0.8l0,0C35.2,83,35.1,83,35.1,83L35.1,83z"></path> <path class="st0" d="M49.5,81.9c-0.1-0.5,0.2-1.1,0.8-1.2l0,0c0.5-0.1,1.1,0.2,1.2,0.8l0,0c0.1,0.5-0.2,1.1-0.8,1.2l0,0 c-0.1,0-0.1,0-0.2,0l0,0C50,82.7,49.5,82.4,49.5,81.9L49.5,81.9z"></path> <path class="st0" d="M30,81.8c-0.5-0.2-0.8-0.7-0.7-1.2l0,0c0.2-0.5,0.7-0.8,1.2-0.7l0,0c0.5,0.2,0.8,0.7,0.7,1.2l0,0 c-0.1,0.4-0.5,0.7-0.9,0.7l0,0C30.2,81.8,30.1,81.8,30,81.8z"></path> <path class="st0" d="M54.4,80.6c-0.2-0.5,0.1-1.1,0.6-1.3l0,0c0.5-0.2,1.1,0.1,1.3,0.6l0,0c0.2,0.5-0.1,1.1-0.6,1.3l0,0 c-0.1,0-0.2,0.1-0.3,0.1l0,0C54.9,81.3,54.5,81.1,54.4,80.6L54.4,80.6z"></path> <path class="st0" d="M25.1,80c-0.5-0.2-0.7-0.8-0.5-1.3l0,0c0.2-0.5,0.8-0.7,1.3-0.5l0,0c0.5,0.2,0.7,0.8,0.5,1.3l0,0 c-0.2,0.4-0.5,0.6-0.9,0.6l0,0C25.4,80,25.2,80,25.1,80L25.1,80z"></path> <path class="st0" d="M59.1,78.8c-0.2-0.5,0-1.1,0.5-1.3l0,0c0.5-0.2,1.1,0,1.3,0.4l0,0c0.2,0.5,0,1.1-0.5,1.3l0,0 c-0.1,0.1-0.3,0.1-0.4,0.1l0,0C59.7,79.3,59.3,79.1,59.1,78.8z"></path> <path class="st0" d="M20.5,77.6c-0.5-0.3-0.6-0.9-0.3-1.4l0,0c0.3-0.5,0.9-0.6,1.4-0.3l0,0c0.5,0.3,0.6,0.9,0.3,1.4l0,0 c-0.2,0.3-0.5,0.5-0.8,0.5l0,0C20.8,77.7,20.6,77.7,20.5,77.6L20.5,77.6z"></path> <path class="st0" d="M63.6,76.3c-0.3-0.5-0.2-1.1,0.3-1.4l0,0c0.5-0.3,1.1-0.2,1.4,0.3l0,0c0.3,0.5,0.2,1.1-0.3,1.4l0,0 c-0.2,0.1-0.3,0.2-0.5,0.2l0,0C64.1,76.8,63.8,76.6,63.6,76.3L63.6,76.3z"></path> <path class="st0" d="M16.2,74.6c-0.4-0.3-0.5-1-0.2-1.4l0,0c0.3-0.4,1-0.5,1.4-0.2l0,0c0.4,0.3,0.5,1,0.2,1.4l0,0 c-0.2,0.2-0.5,0.4-0.8,0.4l0,0C16.6,74.8,16.4,74.7,16.2,74.6L16.2,74.6z"></path> <path class="st0" d="M67.7,73.4c-0.4-0.4-0.3-1.1,0.1-1.4l0,0c0.4-0.4,1.1-0.3,1.4,0.1l0,0c0.4,0.4,0.3,1.1-0.1,1.4l0,0 c-0.2,0.2-0.4,0.2-0.6,0.2l0,0C68.2,73.7,67.9,73.6,67.7,73.4L67.7,73.4z"></path> <path class="st0" d="M12.3,71.1c-0.4-0.4-0.4-1,0-1.4l0,0c0.4-0.4,1-0.4,1.4,0l0,0c0.4,0.4,0.4,1,0,1.4l0,0 c-0.2,0.2-0.4,0.3-0.7,0.3l0,0C12.8,71.4,12.5,71.3,12.3,71.1z"></path> <path class="st0" d="M71.4,69.9c-0.4-0.4-0.4-1-0.1-1.4l0,0c0.4-0.4,1-0.4,1.4-0.1l0,0c0.4,0.4,0.4,1,0.1,1.4l0,0 c-0.2,0.2-0.5,0.3-0.7,0.3l0,0C71.9,70.2,71.7,70.1,71.4,69.9z"></path> <path class="st0" d="M8.9,67.1c-0.3-0.4-0.2-1.1,0.2-1.4l0,0c0.4-0.3,1.1-0.2,1.4,0.2l0,0c0.3,0.4,0.2,1.1-0.2,1.4l0,0 c-0.2,0.1-0.4,0.2-0.6,0.2l0,0C9.4,67.5,9.1,67.4,8.9,67.1L8.9,67.1z"></path> <path class="st0" d="M74.7,66c-0.4-0.3-0.6-0.9-0.2-1.4l0,0c0.3-0.4,0.9-0.6,1.4-0.2l0,0c0.4,0.3,0.6,0.9,0.2,1.4l0,0 c-0.2,0.3-0.5,0.4-0.8,0.4l0,0C75.1,66.2,74.9,66.1,74.7,66z"></path> <path class="st0" d="M6,62.8c-0.3-0.5-0.1-1.1,0.4-1.4l0,0c0.5-0.3,1.1-0.1,1.4,0.4l0,0c0.3,0.5,0.1,1.1-0.4,1.4l0,0 c-0.2,0.1-0.3,0.1-0.5,0.1l0,0C6.6,63.3,6.2,63.1,6,62.8L6,62.8z"></path> <path class="st0" d="M77.5,61.7c-0.5-0.3-0.7-0.9-0.4-1.3l0,0c0.3-0.5,0.9-0.7,1.3-0.4l0,0c0.5,0.3,0.7,0.9,0.4,1.3l0,0 c-0.2,0.3-0.5,0.5-0.9,0.5l0,0C77.8,61.8,77.6,61.8,77.5,61.7L77.5,61.7z"></path> <path class="st0" d="M3.7,58.1c-0.2-0.5,0-1.1,0.5-1.3l0,0c0.5-0.2,1.1,0,1.3,0.5l0,0c0.2,0.5,0,1.1-0.5,1.3l0,0 c-0.1,0-0.2,0.1-0.4,0.1l0,0C4.2,58.8,3.9,58.5,3.7,58.1z"></path> <path class="st0" d="M79.7,57.1c-0.5-0.2-0.8-0.8-0.6-1.3l0,0c0.2-0.5,0.8-0.8,1.3-0.6l0,0c0.5,0.2,0.8,0.8,0.6,1.3l0,0 c-0.2,0.4-0.5,0.6-0.9,0.7l0,0C79.9,57.2,79.8,57.1,79.7,57.1z"></path> <path class="st0" d="M2,53.2c-0.1-0.5,0.2-1.1,0.7-1.2l0,0c0.5-0.2,1.1,0.2,1.2,0.7l0,0c0.2,0.5-0.2,1.1-0.7,1.2l0,0 c-0.1,0-0.2,0-0.2,0l0,0C2.5,53.9,2.1,53.7,2,53.2z"></path> <path class="st0" d="M81.2,52.3c-0.5-0.1-0.9-0.7-0.8-1.2l0,0c0.1-0.5,0.7-0.9,1.2-0.8l0,0c0.5,0.1,0.9,0.7,0.8,1.2l0,0 c-0.1,0.5-0.5,0.8-0.9,0.8l0,0C81.4,52.3,81.3,52.3,81.2,52.3L81.2,52.3z"></path> <path class="st0" d="M0.9,48.1C0.8,47.6,1.2,47,1.7,47l0,0c0.5-0.1,1.1,0.3,1.1,0.8l0,0C3,48.4,2.6,48.9,2,49l0,0c0,0-0.1,0-0.1,0 l0,0C1.4,49,1,48.6,0.9,48.1z"></path> <path class="st0" d="M82.2,47.3c-0.6-0.1-0.9-0.5-0.9-1.1l0,0c0.1-0.5,0.6-1,1.1-0.9l0,0c0.6,0.1,0.9,0.5,0.9,1.1l0,0 c-0.1,0.5-0.5,0.9-1,0.9l0,0C82.3,47.3,82.3,47.3,82.2,47.3L82.2,47.3z"></path> <path class="st0" d="M0.5,42.9c0-0.5,0.4-1,1-1l0,0c0.5,0,1,0.4,1,1l0,0c0,0.5-0.4,1-1,1l0,0C0.9,43.9,0.5,43.5,0.5,42.9z"></path> <path class="st0" d="M81.5,41.2C81.5,41.2,81.5,41.2,81.5,41.2L81.5,41.2c0-0.1,0-0.1,0-0.2l0,0c0-0.5,0.4-1,1-1l0,0 c0.6,0,1,0.4,1,1l0,0c0,0,0,0.1,0,0.1l0,0c0,0,0,0.1,0,0.1l0,0c0,0.5-0.4,1-1,1l0,0C82,42.2,81.5,41.8,81.5,41.2L81.5,41.2z"></path> <path class="st0" d="M1.6,38.8c-0.5-0.1-0.9-0.5-0.9-1.1h0c0.1-0.5,0.6-1,1.1-0.9l0,0c0.5,0.1,1,0.5,0.9,1.1l0,0 c0,0.5-0.5,0.9-1,0.9l0,0C1.7,38.8,1.6,38.8,1.6,38.8L1.6,38.8z"></path> <path class="st0" d="M81.1,36.1C81,35.5,81.4,35,81.9,35l0,0c0.6-0.1,1.1,0.3,1.1,0.8l0,0c0.1,0.5-0.3,1.1-0.8,1.1l0,0 c0,0-0.1,0-0.1,0l0,0C81.6,36.9,81.2,36.6,81.1,36.1z"></path> <path class="st0" d="M2.3,33.8c-0.5-0.1-0.9-0.7-0.8-1.2l0,0c0.1-0.5,0.7-0.9,1.2-0.8l0,0c0.5,0.1,0.9,0.7,0.8,1.2l0,0 c-0.1,0.5-0.5,0.8-1,0.8l0,0C2.5,33.8,2.4,33.8,2.3,33.8L2.3,33.8z"></path> <path class="st0" d="M3.6,28.9c-0.5-0.2-0.8-0.8-0.6-1.3l0,0C3.2,27,3.8,26.8,4.3,27l0,0c0.5,0.2,0.8,0.8,0.6,1.3l0,0 c-0.2,0.4-0.5,0.6-0.9,0.6l0,0C3.9,28.9,3.7,28.9,3.6,28.9z"></path> <path class="st0" d="M5.6,24.1c-0.5-0.3-0.7-0.9-0.4-1.4l0,0c0.3-0.5,0.9-0.7,1.3-0.4l0,0c0.5,0.3,0.7,0.9,0.4,1.4l0,0 c-0.2,0.3-0.5,0.5-0.9,0.5l0,0C5.9,24.3,5.7,24.2,5.6,24.1L5.6,24.1z"></path> <path class="st0" d="M8.1,19.7c-0.4-0.3-0.6-0.9-0.2-1.4l0,0c0.3-0.5,0.9-0.6,1.4-0.2l0,0c0.4,0.3,0.6,0.9,0.2,1.4l0,0 c-0.2,0.3-0.5,0.4-0.8,0.4l0,0C8.5,19.9,8.3,19.9,8.1,19.7z"></path> <path class="st0" d="M11.2,15.7c-0.4-0.4-0.4-1-0.1-1.4l0,0c0.4-0.4,1-0.4,1.4-0.1l0,0c0.4,0.4,0.4,1,0.1,1.4l0,0 c-0.2,0.2-0.5,0.3-0.7,0.3l0,0C11.6,15.9,11.4,15.8,11.2,15.7L11.2,15.7z"></path> <path class="st0" d="M14.7,12c-0.4-0.4-0.3-1.1,0.1-1.4l0,0c0.4-0.4,1.1-0.3,1.4,0.1l0,0c0.4,0.4,0.3,1.1-0.1,1.4l0,0 c-0.2,0.2-0.4,0.2-0.6,0.2l0,0C15.2,12.3,14.9,12.2,14.7,12z"></path> <path class="st0" d="M18.7,8.8c-0.3-0.5-0.2-1.1,0.3-1.4l0,0c0.5-0.3,1.1-0.2,1.4,0.3l0,0c0.3,0.5,0.2,1.1-0.3,1.4l0,0 c-0.2,0.1-0.4,0.2-0.5,0.2l0,0C19.2,9.3,18.9,9.1,18.7,8.8L18.7,8.8z"></path> <path class="st0" d="M23,6.2c-0.2-0.5,0-1.1,0.5-1.3l0,0c0.5-0.2,1.1-0.1,1.3,0.4l0,0c0.2,0.5,0,1.1-0.5,1.3l0,0 c-0.1,0.1-0.3,0.1-0.4,0.1l0,0C23.5,6.7,23.2,6.5,23,6.2L23,6.2z"></path> <path class="st0" d="M27.6,4.1c-0.2-0.5,0.1-1.1,0.6-1.3l0,0c0.5-0.2,1.1,0.1,1.3,0.6l0,0c0.2,0.5-0.1,1.1-0.6,1.3l0,0 c-0.1,0-0.2,0.1-0.3,0.1l0,0C28.2,4.7,27.8,4.5,27.6,4.1z"></path> <path class="st0" d="M32.5,2.6c-0.1-0.5,0.2-1.1,0.8-1.2l0,0c0.5-0.1,1.1,0.2,1.2,0.8l0,0c0.1,0.5-0.2,1.1-0.8,1.2l0,0 c-0.1,0-0.1,0-0.2,0l0,0C33,3.3,32.6,3,32.5,2.6z"></path> <path class="st0" d="M48.5,3c-0.5-0.1-0.9-0.6-0.8-1.1l0,0c0.1-0.5,0.6-0.9,1.2-0.8l0,0c0.5,0.1,0.9,0.6,0.8,1.1l0,0 c-0.1,0.5-0.5,0.8-1,0.8l0,0C48.6,3,48.6,3,48.5,3L48.5,3z"></path> <path class="st0" d="M37.5,1.7c0-0.5,0.4-1,0.9-1.1l0,0c0.5-0.1,1,0.4,1.1,0.9l0,0c0,0.5-0.4,1-0.9,1.1l0,0c0,0,0,0-0.1,0l0,0 C38,2.6,37.6,2.2,37.5,1.7z"></path> <path class="st0" d="M43.6,2.5c-0.5,0-1-0.5-1-1l0,0c0-0.6,0.5-1,1-1l0,0c0.5,0,1,0.5,1,1l0,0C44.6,2,44.2,2.5,43.6,2.5L43.6,2.5 C43.6,2.5,43.6,2.5,43.6,2.5z"></path> <path class="st0" d="M39.7,22.2h-6.8c-5.9,0-10.7,4.6-10.8,10.5c0,0.3,0.1,0.5,0.3,0.7c0.2,0.2,0.5,0.3,0.7,0.3h19.7 c0.8,1.3,1.7,2.5,2.7,3.5l0,0l-12.5,0c-5.9,0-10.7,4.6-10.8,10.5c0,0.3,0.1,0.5,0.3,0.7c0.2,0.2,0.5,0.3,0.7,0.3l19.9,0 c4.4,0,8.2-2.6,9.8-6.3l0,0c2.7,1.2,5.6,1.8,8.7,1.8c12,0,21.8-9.8,21.8-21.8S73.5,0.7,61.5,0.7S39.9,10.3,39.7,22.2L39.7,22.2z M42,32.2H23.6c0.4-4.8,4.4-8.6,9.3-8.6h6.8C39.9,26.7,40.7,29.6,42,32.2L42,32.2L42,32.2z M51.5,41.9c-1.4,3.2-4.6,5.4-8.3,5.5 H23.6c0.4-4.8,4.4-8.6,9.3-8.6H47l0,0l0,0l0,0c0.3,0.3,0.7,0.6,1,0.8c0,0,0.1,0.1,0.1,0.1C49.1,40.5,50.3,41.2,51.5,41.9L51.5,41.9 L51.5,41.9L51.5,41.9L51.5,41.9L51.5,41.9z M61.5,42.8c-3.4,0-6.7-0.9-9.5-2.4c-0.4-0.2-0.7-0.4-1.1-0.6c-0.1-0.1-0.2-0.1-0.3-0.2 c-0.4-0.3-0.8-0.5-1.2-0.8c-5-3.7-8.2-9.6-8.2-16.3c0-11.2,9.1-20.3,20.3-20.3s20.3,9.1,20.3,20.3S72.7,42.8,61.5,42.8L61.5,42.8z"></path> <path class="st0" d="M61.3,16.4c-1.9,0-3.6,0.6-5.1,1.5v-1.4c0-2.8,2.3-5.1,5.1-5.1c2,0,3.9,1.2,4.7,3.1l1.4-0.6c-1-2.4-3.4-4-6-4 c-3.6,0-6.6,2.9-6.6,6.6v2.7c-1.6,1.6-2.5,3.9-2.5,6.3c0,5,4.1,9.1,9.1,9.1s9.1-4.1,9.1-9.1S66.3,16.4,61.3,16.4L61.3,16.4z M61.3,33.1c-4.2,0-7.6-3.4-7.6-7.6s3.4-7.6,7.6-7.6s7.6,3.4,7.6,7.6S65.5,33.1,61.3,33.1z"></path> <path class="st0" d="M62.5,25.5c0-0.7-0.6-1.2-1.2-1.2S60,24.8,60,25.5c0,0.5,0.3,1,0.8,1.2v2.2h0.9v-2.2 C62.2,26.5,62.5,26,62.5,25.5z"></path> </svg> 