<?xml version="1.0" encoding="UTF-8"?> <svg xmlns="http://www.w3.org/2000/svg" id="Layer_1" viewBox="0 0 88.17 84"><defs><style>.cls-1{fill:#fff;}</style></defs><path class="cls-1" d="M66.12,68.82l-22.15-11.75-22.24,11.59,4.33-24.7L8.18,26.39l24.82-3.51L44.19,.43l11.01,22.52,24.8,3.7-18.02,17.43,4.15,24.73Zm-22.14-13.44l20.16,10.69-3.77-22.51,16.4-15.87-22.57-3.36L44.17,3.82l-10.18,20.43-22.6,3.2,16.28,15.99-3.94,22.48,20.24-10.55Z"></path><g><path class="cls-1" d="M61.21,17.49c-.26,0-.52-.11-.71-.29-.19-.19-.29-.44-.29-.71s.11-.52,.29-.71c.37-.37,1.04-.37,1.41,0,.19,.19,.29,.44,.29,.71s-.11,.52-.29,.71-.44,.29-.71,.29Z"></path><path class="cls-1" d="M64.07,12.52c-.45-.32-.55-.95-.23-1.4h0c.32-.45,.95-.55,1.4-.23h0c.45,.32,.55,.95,.23,1.4h0c-.19,.27-.5,.42-.81,.42h0c-.2,0-.41-.06-.58-.19Zm3.44-4.79c-.45-.32-.55-.95-.23-1.4h0c.32-.45,.95-.55,1.39-.23h0c.45,.32,.55,.95,.23,1.4h0c-.19,.27-.5,.42-.81,.42h0c-.2,0-.41-.06-.58-.19Z"></path><path class="cls-1" d="M71.53,3.13c-.26,0-.52-.11-.71-.29-.19-.19-.29-.44-.29-.71s.11-.52,.29-.71c.37-.37,1.04-.37,1.41,0,.19,.18,.29,.44,.29,.71s-.11,.52-.29,.71c-.19,.19-.44,.29-.71,.29Z"></path></g><g><path class="cls-1" d="M70.15,47.49c-.26,0-.52-.11-.71-.29-.19-.19-.29-.44-.29-.71s.11-.52,.29-.71c.37-.37,1.04-.37,1.41,0,.19,.19,.29,.45,.29,.71s-.11,.52-.29,.71c-.19,.19-.44,.29-.71,.29Z"></path><path class="cls-1" d="M80.75,51.12c-.52-.18-.8-.74-.63-1.27h0c.18-.52,.74-.8,1.27-.63h0c.52,.18,.8,.74,.63,1.27h0c-.14,.42-.53,.68-.95,.68h0c-.11,0-.21-.02-.32-.05Zm-5.46-1.84c-.52-.18-.8-.74-.63-1.27h0c.18-.52,.74-.8,1.27-.63h0c.52,.18,.8,.74,.63,1.27h0c-.14,.42-.53,.68-.95,.68h0c-.1,0-.21-.02-.32-.05Z"></path><path class="cls-1" d="M86.53,53.01c-.26,0-.52-.11-.71-.29-.19-.19-.29-.44-.29-.71s.11-.52,.29-.71c.37-.37,1.04-.37,1.41,0,.19,.19,.29,.44,.29,.71s-.11,.52-.29,.71c-.19,.19-.44,.29-.71,.29Z"></path></g><g><path class="cls-1" d="M27.21,17.84c-.26,0-.52-.11-.71-.29-.19-.19-.29-.44-.29-.71s.11-.52,.29-.71c.37-.37,1.04-.37,1.41,0,.19,.19,.29,.44,.29,.71s-.11,.52-.29,.71c-.19,.19-.44,.29-.71,.29Z"></path><path class="cls-1" d="M22.88,12.52c-.32-.45-.22-1.07,.23-1.4h0c.45-.32,1.07-.22,1.4,.23h0c.32,.45,.22,1.07-.23,1.4h0c-.18,.13-.38,.19-.58,.19h0c-.31,0-.62-.14-.81-.42Zm-3.52-4.91c-.32-.45-.22-1.07,.23-1.4h0c.45-.32,1.07-.22,1.4,.23h0c.32,.45,.22,1.07-.23,1.4h0c-.18,.13-.38,.19-.58,.19h0c-.31,0-.62-.15-.81-.42Z"></path><path class="cls-1" d="M16.64,3.13c-.26,0-.52-.11-.71-.29-.19-.19-.29-.44-.29-.71s.11-.52,.29-.71c.37-.37,1.04-.37,1.41,0,.19,.19,.29,.44,.29,.71s-.11,.52-.29,.71c-.19,.19-.44,.29-.71,.29Z"></path></g><g><path class="cls-1" d="M44.09,66.41c-.26,0-.52-.11-.71-.29-.19-.19-.29-.44-.29-.71s.11-.52,.29-.71c.37-.37,1.04-.37,1.42,0,.19,.19,.29,.44,.29,.71s-.11,.52-.29,.71-.44,.29-.71,.29Z"></path><path class="cls-1" d="M43.09,76.85c0-.55,.45-1,1-1h0c.55,0,1,.45,1,1h0c0,.55-.45,1-1,1h0c-.55,0-1-.45-1-1Zm0-5.72c0-.55,.45-1,1-1h0c.55,0,1,.45,1,1h0c0,.55-.45,1-1,1h0c-.55,0-1-.45-1-1Z"></path><path class="cls-1" d="M44.09,83.57c-.26,0-.52-.11-.71-.29-.19-.19-.29-.44-.29-.71s.11-.52,.29-.71c.37-.37,1.04-.37,1.42,0,.19,.19,.29,.44,.29,.71s-.11,.52-.29,.71c-.19,.19-.44,.29-.71,.29Z"></path></g><g><path class="cls-1" d="M17.83,47.55c-.26,0-.52-.11-.71-.29-.19-.19-.29-.44-.29-.71s.11-.52,.29-.71c.37-.37,1.04-.37,1.41,0,.19,.19,.29,.44,.29,.71s-.11,.52-.29,.71c-.19,.19-.44,.29-.71,.29Z"></path><path class="cls-1" d="M6.09,50.51c-.18-.52,.1-1.09,.63-1.27h0c.52-.18,1.09,.1,1.27,.63h0c.18,.52-.1,1.09-.63,1.27h0c-.11,.04-.21,.05-.32,.05h0c-.42,0-.81-.26-.95-.68Zm5.39-1.82c-.18-.52,.11-1.09,.63-1.27h0c.52-.18,1.09,.1,1.27,.63h0c.18,.52-.11,1.09-.63,1.27h0c-.11,.04-.21,.05-.32,.05h0c-.42,0-.81-.26-.95-.68Z"></path><path class="cls-1" d="M1.65,53.01c-.26,0-.52-.11-.71-.29-.19-.19-.29-.44-.29-.71s.11-.52,.29-.71c.37-.37,1.04-.37,1.41,0,.19,.19,.29,.44,.29,.71s-.11,.52-.29,.71c-.19,.19-.45,.29-.71,.29Z"></path></g></svg> 