<?xml version="1.0" encoding="UTF-8"?> <svg xmlns="http://www.w3.org/2000/svg" id="Layer_1" viewBox="0 0 84 84"><defs><style>.cls-1{fill:#fff;}</style></defs><g><path class="cls-1" d="M53.02,58.07s-.04,0-.06,0h-17.78c-.27-.01-.52-.12-.71-.31-.18-.19-.29-.45-.28-.71,.14-5.34,4.44-9.52,9.79-9.52h17.84c.27,0,.52,.12,.71,.31,.18,.19,.29,.45,.28,.71-.14,5.34-4.44,9.52-9.79,9.52Zm-17.3-1.51h17.3s.04,.01,.06,.01c4.33-.03,7.83-3.29,8.2-7.53h-17.3c-4.35-.01-7.88,3.25-8.26,7.52Zm26.1-7.52h0Z"></path><path class="cls-1" d="M62.06,44.52s-.04,0-.06,0h-26.83c-.27-.01-.52-.12-.71-.31-.18-.19-.29-.45-.28-.71,.14-5.34,4.44-9.52,9.79-9.52h26.89s0,.01,0,.01c.27,0,.52,.11,.71,.3,.18,.19,.29,.45,.28,.71-.14,5.34-4.44,9.52-9.79,9.52Zm-26.35-1.51h26.35s.04,.01,.06,.01c4.33-.03,7.83-3.29,8.2-7.53h-26.35c-4.35-.01-7.88,3.25-8.26,7.52Zm35.14-7.52h0Z"></path><path class="cls-1" d="M39.46,71.55c-2.91,0-5.27-2.36-5.27-5.27s2.36-5.27,5.27-5.27,5.27,2.36,5.27,5.27-2.36,5.27-5.27,5.27Zm0-9.04c-2.08,0-3.77,1.69-3.77,3.77s1.69,3.77,3.77,3.77,3.77-1.69,3.77-3.77-1.69-3.77-3.77-3.77Z"></path></g><g><path class="cls-1" d="M24.79,25.81c-.26,0-.52-.11-.71-.29-.19-.18-.29-.44-.29-.71s.11-.52,.29-.71c.37-.37,1.04-.37,1.42,0,.05,.05,.09,.1,.12,.15,.04,.06,.07,.11,.09,.17,.02,.06,.04,.12,.06,.19,.01,.07,.02,.13,.02,.2,0,.26-.11,.52-.29,.71-.19,.19-.44,.29-.71,.29Z"></path><path class="cls-1" d="M74.62,24.81c0-.55,.45-1,1-1h0c.55,0,1,.45,1,1h0c0,.55-.45,1-1,1h0c-.55,0-1-.45-1-1Zm-5.08,0c0-.55,.45-1,1-1h0c.55,0,1,.45,1,1h0c0,.55-.45,1-1,1h0c-.55,0-1-.45-1-1Zm-5.08,0c0-.55,.45-1,1-1h0c.55,0,1,.45,1,1h0c0,.55-.45,1-1,1h0c-.55,0-1-.45-1-1Zm-5.08,0c0-.55,.45-1,1-1h0c.55,0,1,.45,1,1h0c0,.55-.45,1-1,1h0c-.55,0-1-.45-1-1Zm-5.08,0c0-.55,.45-1,1-1h0c.55,0,1,.45,1,1h0c0,.55-.45,1-1,1h0c-.55,0-1-.45-1-1Zm-5.08,0c0-.55,.45-1,1-1h0c.55,0,1,.45,1,1h0c0,.55-.45,1-1,1h0c-.55,0-1-.45-1-1Zm-5.08,0c0-.55,.45-1,1-1h0c.55,0,1,.45,1,1h0c0,.55-.45,1-1,1h0c-.55,0-1-.45-1-1Zm-5.08,0c0-.55,.45-1,1-1h0c.55,0,1,.45,1,1h0c0,.55-.45,1-1,1h0c-.55,0-1-.45-1-1Zm-5.08,0c0-.55,.45-1,1-1h0c.55,0,1,.45,1,1h0c0,.55-.45,1-1,1h0c-.55,0-1-.45-1-1Zm-5.08,0c0-.55,.45-1,1-1h0c.55,0,1,.45,1,1h0c0,.55-.45,1-1,1h0c-.55,0-1-.45-1-1Z"></path><path class="cls-1" d="M80.7,25.81c-.26,0-.52-.11-.71-.29-.19-.18-.29-.44-.29-.71s.11-.52,.29-.71c.37-.37,1.04-.37,1.41,0,.05,.05,.09,.1,.12,.15,.04,.06,.07,.11,.09,.17,.02,.06,.04,.12,.06,.19,.01,.07,.02,.13,.02,.2,0,.26-.11,.52-.29,.71-.19,.19-.44,.29-.71,.29Z"></path><path class="cls-1" d="M79.7,75.64c0-.55,.45-1,1-1h0c.55,0,1,.45,1,1h0c0,.55-.45,1-1,1h0c-.55,0-1-.45-1-1Zm0-5.08c0-.55,.45-1,1-1h0c.55,0,1,.45,1,1h0c0,.55-.45,1-1,1h0c-.55,0-1-.45-1-1Zm0-5.08c0-.55,.45-1,1-1h0c.55,0,1,.45,1,1h0c0,.55-.45,1-1,1h0c-.55,0-1-.45-1-1Zm0-5.08c0-.55,.45-1,1-1h0c.55,0,1,.45,1,1h0c0,.55-.45,1-1,1h0c-.55,0-1-.45-1-1Zm0-5.08c0-.55,.45-1,1-1h0c.55,0,1,.45,1,1h0c0,.55-.45,1-1,1h0c-.55,0-1-.45-1-1Zm0-5.08c0-.55,.45-1,1-1h0c.55,0,1,.45,1,1h0c0,.55-.45,1-1,1h0c-.55,0-1-.45-1-1Zm0-5.08c0-.55,.45-1,1-1h0c.55,0,1,.45,1,1h0c0,.55-.45,1-1,1h0c-.55,0-1-.45-1-1Zm0-5.08c0-.55,.45-1,1-1h0c.55,0,1,.45,1,1h0c0,.55-.45,1-1,1h0c-.55,0-1-.45-1-1Zm0-5.08c0-.55,.45-1,1-1h0c.55,0,1,.45,1,1h0c0,.55-.45,1-1,1h0c-.55,0-1-.45-1-1Zm0-5.08c0-.55,.45-1,1-1h0c.55,0,1,.45,1,1h0c0,.55-.45,1-1,1h0c-.55,0-1-.45-1-1Z"></path><path class="cls-1" d="M80.7,81.72c-.26,0-.52-.11-.71-.29s-.29-.44-.29-.71,.11-.52,.29-.71c.37-.37,1.04-.37,1.41,0,.19,.19,.29,.44,.29,.71s-.11,.52-.29,.71c-.19,.19-.44,.29-.71,.29Z"></path><path class="cls-1" d="M74.62,80.72c0-.55,.45-1,1-1h0c.55,0,1,.45,1,1h0c0,.55-.45,1-1,1h0c-.55,0-1-.45-1-1Zm-5.08,0c0-.55,.45-1,1-1h0c.55,0,1,.45,1,1h0c0,.55-.45,1-1,1h0c-.55,0-1-.45-1-1Zm-5.08,0c0-.55,.45-1,1-1h0c.55,0,1,.45,1,1h0c0,.55-.45,1-1,1h0c-.55,0-1-.45-1-1Zm-5.08,0c0-.55,.45-1,1-1h0c.55,0,1,.45,1,1h0c0,.55-.45,1-1,1h0c-.55,0-1-.45-1-1Zm-5.08,0c0-.55,.45-1,1-1h0c.55,0,1,.45,1,1h0c0,.55-.45,1-1,1h0c-.55,0-1-.45-1-1Zm-5.08,0c0-.55,.45-1,1-1h0c.55,0,1,.45,1,1h0c0,.55-.45,1-1,1h0c-.55,0-1-.45-1-1Zm-5.08,0c0-.55,.45-1,1-1h0c.55,0,1,.45,1,1h0c0,.55-.45,1-1,1h0c-.55,0-1-.45-1-1Zm-5.08,0c0-.55,.45-1,1-1h0c.55,0,1,.45,1,1h0c0,.55-.45,1-1,1h0c-.55,0-1-.45-1-1Zm-5.08,0c0-.55,.45-1,1-1h0c.55,0,1,.45,1,1h0c0,.55-.45,1-1,1h0c-.55,0-1-.45-1-1Zm-5.08,0c0-.55,.45-1,1-1h0c.55,0,1,.45,1,1h0c0,.55-.45,1-1,1h0c-.55,0-1-.45-1-1Z"></path><path class="cls-1" d="M24.79,81.72c-.26,0-.52-.11-.71-.29-.19-.19-.29-.44-.29-.71s.11-.52,.29-.71c.37-.37,1.04-.37,1.42,0,.19,.19,.29,.44,.29,.71s-.11,.52-.29,.71c-.19,.19-.44,.29-.71,.29Z"></path><path class="cls-1" d="M23.79,75.64c0-.55,.45-1,1-1h0c.55,0,1,.45,1,1h0c0,.55-.45,1-1,1h0c-.55,0-1-.45-1-1Zm0-5.08c0-.55,.45-1,1-1h0c.55,0,1,.45,1,1h0c0,.55-.45,1-1,1h0c-.55,0-1-.45-1-1Zm0-5.08c0-.55,.45-1,1-1h0c.55,0,1,.45,1,1h0c0,.55-.45,1-1,1h0c-.55,0-1-.45-1-1Zm0-5.08c0-.55,.45-1,1-1h0c.55,0,1,.45,1,1h0c0,.55-.45,1-1,1h0c-.55,0-1-.45-1-1Zm0-5.08c0-.55,.45-1,1-1h0c.55,0,1,.45,1,1h0c0,.55-.45,1-1,1h0c-.55,0-1-.45-1-1Zm0-5.08c0-.55,.45-1,1-1h0c.55,0,1,.45,1,1h0c0,.55-.45,1-1,1h0c-.55,0-1-.45-1-1Zm0-5.08c0-.55,.45-1,1-1h0c.55,0,1,.45,1,1h0c0,.55-.45,1-1,1h0c-.55,0-1-.45-1-1Zm0-5.08c0-.55,.45-1,1-1h0c.55,0,1,.45,1,1h0c0,.55-.45,1-1,1h0c-.55,0-1-.45-1-1Zm0-5.08c0-.55,.45-1,1-1h0c.55,0,1,.45,1,1h0c0,.55-.45,1-1,1h0c-.55,0-1-.45-1-1Zm0-5.08c0-.55,.45-1,1-1h0c.55,0,1,.45,1,1h0c0,.55-.45,1-1,1h0c-.55,0-1-.45-1-1Z"></path></g><g><path class="cls-1" d="M24.79,25.81c-.26,0-.52-.11-.71-.29-.19-.18-.29-.44-.29-.71s.11-.52,.29-.71c.37-.37,1.04-.37,1.42,0,.05,.05,.09,.1,.12,.15,.04,.06,.07,.11,.09,.17,.02,.06,.04,.12,.06,.19,.01,.07,.02,.13,.02,.2,0,.26-.11,.52-.29,.71-.19,.19-.44,.29-.71,.29Z"></path><path class="cls-1" d="M20.37,21.91c-.4-.38-.41-1.02-.02-1.41h0c.39-.4,1.02-.41,1.41-.02h0c.4,.39,.4,1.02,.02,1.41h0c-.2,.2-.46,.3-.72,.3h0c-.25,0-.5-.09-.7-.28Zm-3.72-3.62c-.4-.39-.4-1.02-.02-1.41h0c.39-.4,1.02-.4,1.41-.02h0c.4,.39,.41,1.02,.02,1.41h0c-.2,.2-.46,.3-.72,.3h0c-.25,0-.5-.09-.7-.28Zm-3.72-3.62c-.4-.39-.41-1.02-.02-1.41h0c.39-.4,1.02-.41,1.41-.02h0c.4,.39,.41,1.02,.02,1.41h0c-.2,.2-.46,.3-.72,.3h0c-.25,0-.5-.09-.7-.28Zm-3.72-3.62c-.4-.38-.4-1.02-.02-1.41h0c.38-.4,1.02-.41,1.41-.02h0c.4,.39,.41,1.02,.02,1.41h0c-.2,.2-.46,.3-.72,.3h0c-.25,0-.5-.09-.7-.28Zm-3.72-3.62c-.4-.39-.4-1.02-.02-1.41h0c.39-.4,1.02-.4,1.42-.02h0c.4,.39,.4,1.02,.02,1.41h0c-.2,.2-.46,.3-.72,.3h0c-.25,0-.5-.09-.7-.28Z"></path><path class="cls-1" d="M2.46,4.1c-.26,0-.52-.11-.71-.29-.19-.19-.29-.44-.29-.71s.11-.52,.29-.71c.37-.37,1.04-.37,1.42,0,.19,.18,.29,.44,.29,.71s-.11,.52-.29,.71-.44,.29-.71,.29Z"></path><path class="cls-1" d="M76.33,21.96c-.4-.39-.4-1.02-.02-1.41h0c.39-.4,1.02-.41,1.41-.02h0c.4,.39,.4,1.02,.02,1.41h0c-.2,.2-.46,.3-.72,.3h0c-.25,0-.5-.09-.7-.28Zm-3.67-3.57c-.4-.39-.41-1.02-.02-1.41h0c.39-.4,1.02-.41,1.41-.02h0c.4,.39,.41,1.02,.02,1.41h0c-.2,.2-.46,.3-.72,.3h0c-.25,0-.5-.09-.7-.28Zm-3.67-3.57c-.4-.39-.41-1.02-.02-1.41h0c.39-.4,1.02-.41,1.41-.02h0c.4,.38,.41,1.02,.02,1.41h0c-.2,.2-.46,.3-.72,.3h0c-.25,0-.5-.09-.7-.28Zm-3.67-3.57c-.4-.39-.41-1.02-.02-1.41h0c.38-.4,1.02-.41,1.41-.02h0c.4,.38,.4,1.02,.02,1.41h0c-.2,.2-.46,.3-.72,.3h0c-.25,0-.5-.09-.7-.28Zm-3.67-3.57c-.4-.39-.41-1.02-.02-1.41h0c.39-.4,1.02-.41,1.41-.02h0c.4,.39,.41,1.02,.02,1.42h0c-.2,.2-.46,.3-.72,.3h0c-.25,0-.5-.09-.7-.28Zm-3.67-3.57c-.4-.39-.4-1.02-.02-1.41h0c.39-.4,1.02-.41,1.41-.02h0c.4,.39,.41,1.02,.02,1.41h0c-.2,.2-.46,.3-.72,.3h0c-.25,0-.5-.09-.7-.28Zm-5.3-1.01c0-.55,.45-1,1-1h0c.55,0,1,.45,1,1h0c0,.55-.45,1-1,1h0c-.55,0-1-.45-1-1Zm-5.12,0c0-.55,.45-1,1-1h0c.55,0,1,.45,1,1h0c0,.55-.45,1-1,1h0c-.55,0-1-.45-1-1Zm-5.12,0c0-.55,.45-1,1-1h0c.55,0,1,.45,1,1h0c0,.55-.45,1-1,1h0c-.55,0-1-.45-1-1Zm-5.12,0c0-.55,.45-1,1-1h0c.55,0,1,.45,1,1h0c0,.55-.45,1-1,1h0c-.55,0-1-.45-1-1Zm-5.12,0c0-.55,.45-1,1-1h0c.55,0,1,.45,1,1h0c0,.55-.45,1-1,1h0c-.55,0-1-.45-1-1Zm-5.12,0c0-.55,.45-1,1-1h0c.55,0,1,.45,1,1h0c0,.55-.45,1-1,1h0c-.55,0-1-.45-1-1Zm-5.12,0c0-.55,.45-1,1-1h0c.55,0,1,.45,1,1h0c0,.55-.45,1-1,1h0c-.55,0-1-.45-1-1Zm-5.12,0c0-.55,.45-1,1-1h0c.55,0,1,.45,1,1h0c0,.55-.45,1-1,1h0c-.55,0-1-.45-1-1Zm-5.12,0c0-.55,.45-1,1-1h0c.55,0,1,.45,1,1h0c0,.55-.45,1-1,1h0c-.55,0-1-.45-1-1Zm-5.12,0c0-.55,.45-1,1-1h0c.55,0,1,.45,1,1h0c0,.55-.45,1-1,1h0c-.55,0-1-.45-1-1Z"></path><path class="cls-1" d="M80.7,25.81c-.26,0-.52-.11-.71-.29-.19-.18-.29-.44-.29-.71s.11-.52,.29-.71c.37-.37,1.04-.37,1.41,0,.05,.05,.09,.1,.12,.15,.04,.06,.07,.11,.09,.17,.02,.06,.04,.12,.06,.19,.01,.07,.02,.13,.02,.2,0,.26-.11,.52-.29,.71-.19,.19-.44,.29-.71,.29Z"></path></g><g><path class="cls-1" d="M24.79,25.81c-.26,0-.52-.11-.71-.29-.19-.18-.29-.44-.29-.71s.11-.52,.29-.71c.37-.37,1.04-.37,1.42,0,.05,.05,.09,.1,.12,.15,.04,.06,.07,.11,.09,.17,.02,.06,.04,.12,.06,.19,.01,.07,.02,.13,.02,.2,0,.26-.11,.52-.29,.71-.19,.19-.44,.29-.71,.29Z"></path><path class="cls-1" d="M23.79,75.64c0-.55,.45-1,1-1h0c.55,0,1,.45,1,1h0c0,.55-.45,1-1,1h0c-.55,0-1-.45-1-1Zm0-5.08c0-.55,.45-1,1-1h0c.55,0,1,.45,1,1h0c0,.55-.45,1-1,1h0c-.55,0-1-.45-1-1Zm0-5.08c0-.55,.45-1,1-1h0c.55,0,1,.45,1,1h0c0,.55-.45,1-1,1h0c-.55,0-1-.45-1-1Zm0-5.08c0-.55,.45-1,1-1h0c.55,0,1,.45,1,1h0c0,.55-.45,1-1,1h0c-.55,0-1-.45-1-1Zm0-5.08c0-.55,.45-1,1-1h0c.55,0,1,.45,1,1h0c0,.55-.45,1-1,1h0c-.55,0-1-.45-1-1Zm0-5.08c0-.55,.45-1,1-1h0c.55,0,1,.45,1,1h0c0,.55-.45,1-1,1h0c-.55,0-1-.45-1-1Zm0-5.08c0-.55,.45-1,1-1h0c.55,0,1,.45,1,1h0c0,.55-.45,1-1,1h0c-.55,0-1-.45-1-1Zm0-5.08c0-.55,.45-1,1-1h0c.55,0,1,.45,1,1h0c0,.55-.45,1-1,1h0c-.55,0-1-.45-1-1Zm0-5.08c0-.55,.45-1,1-1h0c.55,0,1,.45,1,1h0c0,.55-.45,1-1,1h0c-.55,0-1-.45-1-1Zm0-5.08c0-.55,.45-1,1-1h0c.55,0,1,.45,1,1h0c0,.55-.45,1-1,1h0c-.55,0-1-.45-1-1Z"></path><path class="cls-1" d="M24.79,81.72c-.26,0-.52-.11-.71-.29-.19-.19-.29-.44-.29-.71s.11-.52,.29-.71c.37-.37,1.04-.37,1.42,0,.19,.19,.29,.44,.29,.71s-.11,.52-.29,.71c-.19,.19-.44,.29-.71,.29Z"></path><path class="cls-1" d="M20.37,77.82c-.4-.39-.41-1.02-.02-1.41h0c.39-.4,1.02-.41,1.41-.02h0c.4,.39,.4,1.02,.02,1.41h0c-.2,.2-.46,.3-.72,.3h0c-.25,0-.5-.09-.7-.28Zm-3.72-3.62c-.4-.39-.4-1.02-.02-1.41h0c.39-.4,1.02-.4,1.41-.02h0c.4,.39,.41,1.02,.02,1.41h0c-.2,.2-.46,.3-.72,.3h0c-.25,0-.5-.09-.7-.28Zm-3.72-3.62c-.4-.38-.41-1.02-.02-1.41h0c.39-.4,1.02-.41,1.41-.02h0c.4,.39,.41,1.02,.02,1.41h0c-.2,.2-.46,.3-.72,.3h0c-.25,0-.5-.09-.7-.28Zm-3.72-3.62c-.4-.39-.4-1.02-.02-1.41h0c.38-.4,1.02-.41,1.41-.02h0c.4,.39,.41,1.02,.02,1.41h0c-.2,.2-.46,.3-.72,.3h0c-.25,0-.5-.09-.7-.28Zm-3.72-3.62c-.4-.39-.41-1.02-.02-1.41h0c.39-.4,1.02-.4,1.41-.02h0c.4,.39,.41,1.02,.02,1.41h0c-.2,.2-.46,.3-.72,.3h0c-.25,0-.5-.09-.7-.28Z"></path><path class="cls-1" d="M2.46,60.01c-.26,0-.52-.11-.71-.29-.19-.19-.29-.44-.29-.71s.11-.52,.29-.71c.37-.37,1.04-.37,1.42,0,.19,.18,.29,.44,.29,.71s-.11,.52-.29,.71c-.19,.19-.44,.29-.71,.29Z"></path><path class="cls-1" d="M1.46,53.93c0-.55,.45-1,1-1h0c.55,0,1,.45,1,1h0c0,.55-.45,1-1,1h0c-.55,0-1-.45-1-1Zm0-5.08c0-.55,.45-1,1-1h0c.55,0,1,.45,1,1h0c0,.55-.45,1-1,1h0c-.55,0-1-.45-1-1Zm0-5.08c0-.55,.45-1,1-1h0c.55,0,1,.45,1,1h0c0,.55-.45,1-1,1h0c-.55,0-1-.45-1-1Zm0-5.08c0-.55,.45-1,1-1h0c.55,0,1,.45,1,1h0c0,.55-.45,1-1,1h0c-.55,0-1-.45-1-1Zm0-5.08c0-.55,.45-1,1-1h0c.55,0,1,.45,1,1h0c0,.55-.45,1-1,1h0c-.55,0-1-.45-1-1Zm0-5.08c0-.55,.45-1,1-1h0c.55,0,1,.45,1,1h0c0,.55-.45,1-1,1h0c-.55,0-1-.45-1-1Zm0-5.08c0-.55,.45-1,1-1h0c.55,0,1,.45,1,1h0c0,.55-.45,1-1,1h0c-.55,0-1-.45-1-1Zm0-5.08c0-.55,.45-1,1-1h0c.55,0,1,.45,1,1h0c0,.55-.45,1-1,1h0c-.55,0-1-.45-1-1Zm0-5.08c0-.55,.45-1,1-1h0c.55,0,1,.45,1,1h0c0,.55-.45,1-1,1h0c-.55,0-1-.45-1-1Zm0-5.08c0-.55,.45-1,1-1h0c.55,0,1,.45,1,1h0c0,.55-.45,1-1,1h0c-.55,0-1-.45-1-1Z"></path><path class="cls-1" d="M2.46,4.1c-.26,0-.52-.11-.71-.29-.19-.19-.29-.44-.29-.71s.11-.52,.29-.71c.37-.37,1.04-.37,1.42,0,.19,.18,.29,.44,.29,.71s-.11,.52-.29,.71-.44,.29-.71,.29Z"></path></g></svg> 